# xmcd
#
# Track frame offsets:
#	150
#	16357
#	28675
#	42879
#	60249
#	77279
#	91711
#	107971
#	129142
#	140785
#	155163
#	170930
#	184622
#	202947
#	214033
#	230600
#	245849
#	262767
#	280304
#
# Disc length: 3951 seconds
#
# Revision: 2
# Processed by: cddbd v1.5.2PL0 Copyright (c) Steve Scherf et al.
# Submitted via: audiograbber 1.83.01
#
DISCID=020f6d13
DTITLE=Various Artist - Promo Only Country Radio 2008 - 09
DYEAR=2008
DGENRE=Country
TTITLE0=Bailey Grey - Beach Weekend
TTITLE1=Kenny Chesney - Everybody Wants To Go To Heaven
TTITLE2=Trailer Choir - Off The Hillbilly Hook
TTITLE3=Montgomery Gentry - Roll With Me
TTITLE4=Trace Adkins - Muddy Wanter
TTITLE5=Rehab ft. Hank Williams Jr. - Bartender Song (18+)
TTITLE6=Chad Hudson - Somebody Find Me A Preacher
TTITLE7=Carrie Underwood - Just A Dream
TTITLE8=Justin Moore - Back That Thing Up
TTITLE9=Matt Stillwell - Shine
TTITLE10=Trisha Yearwood - They Call It Falling For A Reason
TTITLE11=Trent Willmon - Cold Beer And A Fishin Pole
TTITLE12=Billy Ray Cyrus - Somebody Said A Prayer
TTITLE13=Bruce Robinson - Hammer, The
TTITLE14=Carrie Rodriguez - She Ain't Me
TTITLE15=Charlie Allen - Why Ask Why
TTITLE16=Darrell Scott - American Tune
TTITLE17=Derek Sholl - Here
TTITLE18=Frizzell and Friends - This Is Our Time
EXTD=
EXTT0=
EXTT1=
EXTT2=
EXTT3=
EXTT4=
EXTT5=
EXTT6=
EXTT7=
EXTT8=
EXTT9=
EXTT10=
EXTT11=
EXTT12=
EXTT13=
EXTT14=
EXTT15=
EXTT16=
EXTT17=
EXTT18=
PLAYORDER=
